# xmcd
#
# Track frame offsets:
#	150
#	9989
#	22504
#	36844
#	48777
#	61530
#	75997
#	85271
#	100081
#	114594
#	132381
#
# Disc length: 1920 seconds
#
# Revision: 0
# Processed by: cddbd v1.5.2PL0 Copyright (c) Steve Scherf et al.
# Submitted via: EZCDAudioConverter 1.3.4.1
#
DISCID=6c077e0b
DTITLE=Bossa Rio - Bossa Rio (1970)
DYEAR=1900
DGENRE=
TTITLE0=Saiupa (Por Causa De Voce Menina)
TTITLE1=Do You Know The Way To San Jose
TTITLE2=Wave
TTITLE3=Day By Day
TTITLE4=Today, Tomorrow (Boa Palavra)
TTITLE5=Up, Up And Away
TTITLE6=Nana
TTITLE7=Old Devil Moon
TTITLE8=Veleiro (Sailboat)
TTITLE9=Gentle Rain
TTITLE10=Cancao Do Sal (Sultry Song)
EXTD=
EXTT0=
EXTT1=
EXTT2=
EXTT3=
EXTT4=
EXTT5=
EXTT6=
EXTT7=
EXTT8=
EXTT9=
EXTT10=
PLAYORDER=
